<?xml version="1.0" standalone="no"?><!DOCTYPE svg PUBLIC "-//W3C//DTD SVG 1.1//EN" "http://www.w3.org/Graphics/SVG/1.1/DTD/svg11.dtd"><svg t="1749635350734" class="icon" viewBox="0 0 1024 1024" version="1.1" xmlns="http://www.w3.org/2000/svg" p-id="21827" xmlns:xlink="http://www.w3.org/1999/xlink" width="200" height="200"><path d="M512.78 571.99c-21.06 0-38.31-17.06-38.31-38.14 0-21.08 16.93-38.14 37.99-38.14 61.87 0 117.42-34.04 145.32-88.83 40.67-79.89 8.72-178.04-71.27-218.82-79.95-40.64-178.02-8.75-218.75 71.29-23.93 46.89-23.54 102.8 1.02 149.54 9.8 18.62 2.63 41.68-16.02 51.47-18.66 9.8-41.73 2.64-51.51-16.02-36.07-68.65-36.61-150.74-1.45-219.64 59.82-117.4 203.92-164.26 321.33-104.63 117.46 59.86 164.39 204.04 104.63 321.4-40.98 80.5-122.58 130.52-212.98 130.52z" fill="#000000" p-id="21828"></path><path d="M834.16 933.09c-1.58 0-3.17-0.07-4.77-0.3-20.9-2.61-35.74-21.64-33.13-42.54 1.34-10.88 1.86-21.79 1.86-32.93 0-93.15-45.66-180.68-122.13-234.13-17.26-12.07-21.49-35.83-9.42-53.08 12.05-17.25 35.85-21.49 53.11-9.42 96.88 67.68 154.72 178.56 154.72 296.63 0 15.2-0.8 29.05-2.46 42.31-2.38 19.35-18.82 33.46-37.78 33.46z" fill="#000000" p-id="21829"></path><path d="M191.4 933.09c-18.94 0-35.37-14.08-37.79-33.37-1.66-13.26-2.48-27.12-2.48-42.39 0-199.42 162.23-361.63 361.65-361.63 21.06 0 38.14 17.06 38.14 38.14 0 21.08-17.08 38.14-38.14 38.14-157.35 0-285.36 128.02-285.36 285.35 0 11.14 0.52 22.01 1.88 32.85 2.63 20.9-12.18 39.97-33.07 42.61-1.63 0.19-3.23 0.3-4.83 0.3z" fill="#000000" p-id="21830"></path></svg>