<?xml version="1.0" standalone="no"?><!DOCTYPE svg PUBLIC "-//W3C//DTD SVG 1.1//EN" "http://www.w3.org/Graphics/SVG/1.1/DTD/svg11.dtd"><svg t="1749635137226" class="icon" viewBox="0 0 1024 1024" version="1.1" xmlns="http://www.w3.org/2000/svg" p-id="18714" xmlns:xlink="http://www.w3.org/1999/xlink" width="200" height="200"><path d="M617.568 936.918 382.514 936.918c-35.83 0-64.977-29.155-64.977-64.99L317.537 647.008c0-0.325-0.395-0.72-0.728-0.72l-122.27 0c-31.242 0-42.635-18.45-46.085-26.37-3.442-7.935-9.17-28.84 12.115-51.7l293.559-315.207c11.922-12.802 28.652-20.152 45.897-20.152 17.242 0 33.982 7.35 45.912 20.165l293.554 315.194c21.295 22.86 15.565 43.76 12.115 51.7-3.45 7.92-14.845 26.37-46.08 26.37l-122.26 0c-0.335 0-0.725 0.395-0.725 0.72l0 224.919C682.543 907.763 653.388 936.918 617.568 936.918zM235.544 582.013l81.265 0.015c35.837 0 64.985 29.15 64.985 64.98l0 224.919c0 0.32 0.395 0.725 0.72 0.725l235.054 0c0.31 0 0.715-0.405 0.715-0.725L618.283 647.008c0-35.83 29.14-64.98 64.985-64.98l81.245 0L500.039 298.027 235.544 582.013zM815.898 184.144 184.177 184.144c-17.745 0-32.13-14.39-32.13-32.13 0-17.747 14.385-32.135 32.13-32.135l631.721 0c17.745 0 32.125 14.387 32.125 32.135C848.023 169.755 833.643 184.144 815.898 184.144z" fill="#000000" p-id="18715"></path></svg>